inDegrees=yes
name=ik_lifting_orientations
DataType=double
version=3
OpenSimVersion=4.5-2024-01-10-34fd6af
endheader
time	pelvis_tilt	pelvis_list	pelvis_rotation	pelvis_tx	pelvis_ty	pelvis_tz	hip_flexion_r	hip_adduction_r	hip_rotation_r	knee_angle_r	knee_angle_r_beta	ankle_angle_r	subtalar_angle_r	mtp_angle_r	hip_flexion_l	hip_adduction_l	hip_rotation_l	knee_angle_l	knee_angle_l_beta	ankle_angle_l	subtalar_angle_l	mtp_angle_l	lumbar_extension	lumbar_bending	lumbar_rotation	arm_flex_r	arm_add_r	arm_rot_r	elbow_flex_r	pro_sup_r	wrist_flex_r	wrist_dev_r	arm_flex_l	arm_add_l	arm_rot_l	elbow_flex_l	pro_sup_l	wrist_flex_l	wrist_dev_l
1.45	0.01323574202065056	11.65769870617294	-89.98976862681944	0	0.9399999998679526	0	44.99495516228037	-10.27764535178963	0	59.99786444245075	1.047160278685997	-5.088550257923302	0	0	44.99495516228037	-10.27764535178963	0	59.99786444245075	1.047160278685997	-5.088550257923302	0	0	36.41457366697962	-4.749320970718408	-2.734642292403286	-20.45409278241167	34.58552057752286	42.25050522350921	171.0434492912881	1.571750991235263	0	0	0	-11.76792548808115	0	88.45931035317382	1.571750991235263	0	0
1.46	0.001556455885612731	11.6514667454969	-90.00143952074025	0	0.9399999998679526	0	44.99513887265175	-10.25502408972816	0	59.99794667789638	1.047161713965286	-5.080173279426914	0	0	44.99513887265175	-10.25502408972816	0	59.99794667789638	1.047161713965286	-5.080173279426914	0	0	36.39121612024965	-4.719509140330464	-2.733267362834158	-16.9760554217103	36.96019549011586	39.37884772716584	165.7558593957825	1.527562363139477	0	0	0	-11.8403991505576	0	88.50262059009799	1.527562363139477	0	0
1.47	-0.001846379768820739	11.65803991763863	-89.99664255233554	0	0.9399999998679526	0	44.99522271217402	-10.24409955379816	0	59.99798335973625	1.047162354184167	-5.076035580640178	0	0	44.99522271217402	-10.24409955379816	0	59.99798335973625	1.047162354184167	-5.076035580640178	0	0	36.39671696667026	-4.71610073388613	-2.738746470901564	-12.05101996574794	40.33259585507227	35.45373843536314	160.5982228497919	1.507554189888048	0	0	0	-11.87304677734063	0	88.52223102980581	1.507554189888048	0	0
1.48	-0.001714578731743085	11.6538313634338	-89.99285257716492	0	0.9399999998679526	0	44.99523387398264	-10.24212464495397	0	59.99798732482187	1.047162423387966	-5.075235755492051	0	0	44.99523387398264	-10.24212464495397	0	59.99798732482187	1.047162423387966	-5.075235755492051	0	0	36.39120918986269	-4.725756184908929	-2.743969842757362	-10.019981222904	41.69518877650539	33.73366659287932	157.0997858725579	1.505099618804665	0	0	0	-11.87679823460324	0	88.5246367980869	1.505099618804665	0	0
1.49	0.002948152864441475	11.64752670043556	-89.99889628624136	0	0.9399999998679526	0	44.9952369400573	-10.24158020909603	0	59.99798841111485	1.047162442347355	-5.075015108703324	0	0	44.9952369400573	-10.24158020909603	0	59.99798841111485	1.047162442347355	-5.075015108703324	0	0	36.38296810469557	-4.721249367099158	-2.735484348214996	-7.822251270901051	42.30433611507365	31.88674022169377	155.2510329709656	1.504425967330128	0	0	0	-11.87782711799648	0	88.52529705572226	1.504425967330128	0	0
1.5	-0.008692357067331015	11.6523344138239	-89.99604705822702	0	0.9399999998679526	0	44.99535464950173	-10.22811274146868	0	59.99804150234338	1.047163368964097	-5.070134319476339	0	0	44.99535464950173	-10.22811274146868	0	59.99804150234338	1.047163368964097	-5.070134319476339	0	0	37.51547796701312	-4.945248233984342	-2.812916757105144	-6.380242811130055	43.42942833122508	30.18428101235125	151.0884774108712	1.475714912884495	0	0	0	-11.92537812674013	0	88.55343740254743	1.475714912884495	0	0
1.51	-0.0004558864637456295	11.65076832200577	-89.99987287897763	0	0.9399999998679526	0	44.99536613691851	-10.22615608569077	0	59.99804558055867	1.047163440142381	-5.069351892374788	0	0	44.99536613691851	-10.22615608569077	0	59.99804558055867	1.047163440142381	-5.069351892374788	0	0	37.5119242820161	-4.955693825186443	-2.809219740479576	-1.662061645945148	45.56155171819285	26.41048778606215	145.3891476050861	1.47317316713252	0	0	0	-11.92927848862764	0	88.55592861345845	1.47317316713252	0	0
1.52	0.01071319798577861	11.6481893495576	-89.99654455508245	0	0.9399999998679526	0	44.995669308331	-10.19596626555404	0	59.99818425307746	1.047165860434417	-5.058935231965347	0	0	44.995669308331	-10.19596626555404	0	59.99818425307746	1.047165860434417	-5.058935231965347	0	0	37.51140465480433	-4.989592116244618	-2.820687063645119	4.377920754163158	47.01279696718557	21.73781094690996	137.8838298338148	1.39765712745502	0	0	0	-12.05605476367731	0	88.62994363097825	1.39765712745502	0	0
1.53	0.0004199077845888805	11.65129029932582	-90.00113927380725	0	0.9399999998679526	0	44.99591512703217	-10.1717480408064	0	59.9982962500524	1.047167815150381	-5.050534776592527	0	0	44.99591512703217	-10.1717480408064	0	59.9982962500524	1.047167815150381	-5.050534776592527	0	0	37.51157938315425	-4.956119668048053	-2.807623231513845	9.580313889903788	48.00900767440305	18.01536628713831	130.763263270264	1.33602541524688	0	0	0	-12.16007510454683	0	88.6903503109164	1.33602541524688	0	0
1.54	-0.006729581757855548	11.64396123681239	-89.98495831964584	0	0.9399999998679526	0	44.99609696581417	-10.15435030839882	0	59.99837861444479	1.047169252680215	-5.044530259210716	0	0	44.99609696581417	-10.15435030839882	0	59.99837861444479	1.047169252680215	-5.044530259210716	0	0	36.30756500835475	-4.714293869375529	-2.755297378941476	15.96556975817963	48.4325550570032	13.84395315420777	124.3410002847012	1.290102430150031	0	0	0	-12.23799527045116	0	88.73536051098031	1.290102430150031	0	0
